<?xml version="1.0" encoding="utf-8"?>
<!-- Generator: Adobe Illustrator 25.0.1, SVG Export Plug-In . SVG Version: 6.00 Build 0)  -->
<svg version="1.1" id="Layer_1" xmlns="http://www.w3.org/2000/svg" xmlns:xlink="http://www.w3.org/1999/xlink" x="0px" y="0px"
	width="50" height="50" viewBox="0 0 50 50" fill="none" style="enable-background:new 0 0 50 50;" xml:space="preserve">
<style type="text/css">
	.st0{fill:#66FCF1;}
</style>
<path id="surface1" class="st0" d="M28.2,0c2.8,6.4-9.9,10.3-11,15.6c-1.1,4.9,7.5,10.5,7.5,10.5c-1.3-2-2.3-3.7-3.6-6.8
	C18.9,14,34.5,9.2,28.2,0L28.2,0z M36.6,8.8c0,0-11.1,0.7-11.6,7.8c-0.2,3.1,2.9,4.8,3,7.1c0.1,1.9-1.9,3.4-1.9,3.4s3.5-0.7,4.7-3.5
	c1.2-3.2-2.4-5.3-2-7.8C29,13.3,36.6,8.8,36.6,8.8L36.6,8.8z M19.2,25.2c0,0-10.1-0.1-10.1,2.7c0,3,13.3,3.2,22.7,1.4
	c0,0,2.5-1.7,3.2-2.4c-6.2,1.3-20.3,1.4-20.3,0.3C14.6,26.2,19.2,25.2,19.2,25.2L19.2,25.2z M38.7,25.2c-1,0.1-2.1,0.5-3,1.2
	c2.3-0.5,4.2,0.9,4.2,2.5c0,3.6-5.2,7-5.2,7s8.1-0.9,8.1-6.9C42.7,26.3,40.8,25,38.7,25.2L38.7,25.2z M16.8,30.7
	c-1.6,0-3.9,1.2-3.9,2.4c0,2.3,11.7,4.1,20.3,0.7l-3-1.8C24.4,33.8,13.5,33.2,16.8,30.7z M18.2,35.9c-2.1,0-3.5,1.3-3.5,2.2
	c0,3,12.7,3.3,17.7,0.2l-3.2-2C25.5,38,16,38.2,18.2,35.9L18.2,35.9z M11.1,38.6c-3.5-0.1-5.7,1.5-5.7,2.8c0,6.9,35.5,6.6,35.5-0.5
	c0-1.2-1.3-1.7-1.8-2C42,45.6,10,45.1,10,41.1c0-0.9,2.4-1.8,4.5-1.3l-1.8-1.1C12.1,38.7,11.6,38.6,11.1,38.6L11.1,38.6z M44.6,43.3
	c-5.4,5.1-19.1,7-32.8,3.8C25.5,52.7,44.6,49.5,44.6,43.3z"/>
</svg>
