<?xml version="1.0" encoding="utf-8"?>
<!-- Generator: Adobe Illustrator 25.0.1, SVG Export Plug-In . SVG Version: 6.00 Build 0)  -->
<svg version="1.1" id="Layer_1" xmlns="http://www.w3.org/2000/svg" xmlns:xlink="http://www.w3.org/1999/xlink" x="0px" y="0px"
	width="50" height="50" viewBox="0 0 50 50" fill="none" style="enable-background:new 0 0 50 50;" xml:space="preserve">
<style type="text/css">
	.st0{fill:#66FCF1;}
</style>
<path class="st0" d="M22,18.1v2.5c0,1.9-4.7,3.5-10,3.5S2,22.5,2,20.6v-2.5c2.4,1.7,7,2.3,10,2.3C15,20.3,19.6,19.8,22,18.1z
	 M12,14.6c-3,0-7.6-0.5-10-2.3v2.4c0,1.9,4.7,3.5,10,3.5s10-1.6,10-3.5v-2.4C19.6,14.1,15,14.6,12,14.6z M12,0C6.7,0,2,1.6,2,3.5
	S6.7,7,12,7s10-1.6,10-3.5S17.3,0,12,0z M12,9C9,9,4.4,8.5,2,6.7v2.4c0,1.9,4.7,3.5,10,3.5S22,11,22,9.1V6.7C19.6,8.5,15,9,12,9z"/>
</svg>
