<?xml version="1.0" encoding="utf-8"?>
<!-- Generator: Adobe Illustrator 25.0.1, SVG Export Plug-In . SVG Version: 6.00 Build 0)  -->
<svg version="1.1" id="Layer_1" xmlns="http://www.w3.org/2000/svg" xmlns:xlink="http://www.w3.org/1999/xlink" x="0px" y="0px"
	width="50" height="50" viewBox="0 0 50 50" fill="none" style="enable-background:new 0 0 50 50;" xml:space="preserve">
<style type="text/css">
	.st0{fill:#66FCF1;}
</style>
<g id="Git">
	<path class="st0" d="M23.6,10.9L13.1,0.4c-0.6-0.6-1.5-0.6-2.1,0l-2,2C8.8,2.6,8.8,2.9,9,3.1l0,0L10.7,5c0.1,0.1,0.4,0.2,0.5,0.1
		c1-0.4,2.2,0.1,2.6,1.1C14,6.5,14,6.7,14,7s-0.1,0.5-0.1,0.7c-0.1,0.2,0,0.4,0.1,0.5l1.8,1.7c0.1,0.1,0.4,0.2,0.5,0.1
		c1-0.4,2.2,0.1,2.6,1.1s-0.1,2.2-1.1,2.6c-1,0.4-2.2-0.1-2.6-1.1C15.1,12.5,15,12.2,15,12s0.1-0.5,0.1-0.7c0.1-0.2,0-0.4-0.1-0.5
		l-1.7-1.7c-0.2-0.2-0.5-0.2-0.7,0c-0.1,0.1-0.1,0.2-0.1,0.3v5.3c0,0.2,0.1,0.4,0.3,0.5c1,0.4,1.5,1.6,1,2.6c-0.4,1-1.6,1.5-2.6,1
		s-1.5-1.6-1-2.6c0.2-0.5,0.6-0.8,1-1c0.2-0.1,0.3-0.3,0.3-0.5V9.3c0-0.2-0.1-0.4-0.3-0.5c-1-0.4-1.5-1.6-1.1-2.6
		c0.1-0.2,0-0.4-0.1-0.5L8.2,3.9C8,3.7,7.7,3.7,7.5,3.9l0,0l-7,7c-0.6,0.6-0.6,1.5,0,2.1L11,23.5c0.6,0.6,1.5,0.6,2.1,0L23.6,13
		C24.2,12.4,24.2,11.5,23.6,10.9L23.6,10.9z"/>
</g>
</svg>
