<?xml version="1.0" encoding="utf-8"?>
<!-- Generator: Adobe Illustrator 25.0.1, SVG Export Plug-In . SVG Version: 6.00 Build 0)  -->
<svg version="1.1" id="Layer_1" xmlns="http://www.w3.org/2000/svg" xmlns:xlink="http://www.w3.org/1999/xlink" x="0px" y="0px"
	width="50" height="50" viewBox="0 0 50 50" fill="none" style="enable-background:new 0 0 50 50;" xml:space="preserve">
<style type="text/css">
	.st0{fill:#66FCF1;}
</style>
<path class="st0" d="M15.9,12c0,1.3-1.1,2.4-2.4,2.4s-2.4-1.1-2.4-2.4s1.1-2.4,2.4-2.4S15.9,10.6,15.9,12z"/>
<path class="st0" d="M13.5,17.5c-0.2,0-0.4,0-0.7,0c-2.8,0-5.5-0.4-8.1-1.2l0.2,0.1c-1.4-0.4-2.5-1.1-3.5-1.9l0,0
	C0.6,13.9,0.1,13,0,12l0,0c0-1.6,1.7-3.2,4.7-4.2c2.5-0.8,5.4-1.3,8.4-1.3c0.1,0,0.3,0,0.4,0l0,0c0.1,0,0.3,0,0.4,0
	c3,0,5.8,0.5,8.5,1.3l-0.2-0.1c1.3,0.4,2.4,1,3.4,1.8l0,0c0.8,0.5,1.3,1.4,1.4,2.4l0,0c0,1.7-2,3.3-5.1,4.4
	c-2.4,0.7-5.1,1.1-7.9,1.1C13.8,17.5,13.6,17.5,13.5,17.5L13.5,17.5L13.5,17.5z M13.5,7.7c-0.1,0-0.2,0-0.4,0
	c-2.9,0-5.7,0.5-8.3,1.3L5,8.9C2.4,9.8,1.2,11.1,1.2,12s1.3,2.3,4.2,3.3c2.2,0.7,4.8,1.1,7.5,1.1c0.2,0,0.5,0,0.7,0l0,0
	c0.1,0,0.3,0,0.5,0c2.7,0,5.3-0.4,7.7-1.1h-0.2c3-1,4.3-2.4,4.3-3.3c-0.1-0.6-0.5-1.2-1-1.5l0,0c-0.9-0.7-1.9-1.2-3-1.6h-0.1
	c-2.4-0.8-5.1-1.2-7.9-1.2C13.8,7.6,13.6,7.6,13.5,7.7L13.5,7.7L13.5,7.7z"/>
<path class="st0" d="M8,24L8,24c-0.5,0-0.9-0.1-1.3-0.3l0,0c-1.4-0.8-1.9-3.1-1.3-6.1c0.7-3.1,1.8-5.9,3.3-8.4v0.1
	c1.5-2.7,3.3-4.9,5.4-6.9l0,0c0.9-0.8,2-1.5,3.2-2h0.1C17.8,0.1,18.3,0,18.8,0s1,0.1,1.4,0.3l0,0c1.4,0.8,1.9,3.4,1.2,6.6
	c-0.7,3-1.8,5.6-3.3,8l0.1-0.1c-1.5,2.6-3.2,4.9-5.3,6.8l0,0c-1,0.9-2.1,1.6-3.3,2.1H9.5C9.1,23.9,8.6,24,8,24L8,24L8,24z M9.2,9.5
	l0.5,0.3c-1.4,2.3-2.5,4.9-3.1,7.7v0.2c-0.5,2.8,0,4.5,0.7,4.9c0.2,0.1,0.4,0.2,0.7,0.2c0,0,0,0,0.1,0l0,0c1,0,2.5-0.6,4.2-2.1
	c2-1.9,3.7-4,5-6.4l0.1-0.1c1.3-2.2,2.4-4.7,3-7.3V6.7c0.6-3.1,0.1-4.9-0.7-5.4c-0.2-0.1-0.5-0.1-0.8-0.1c-0.4,0-0.7,0.1-1,0.2l0,0
	c-1.1,0.5-2.1,1.1-2.9,1.8l0,0c-2,1.9-3.8,4.1-5.1,6.5L9.7,9.8L9.2,9.5z"/>
<path class="st0" d="M19,24c-1.3,0-3-0.8-4.7-2.3c-2.2-2-4-4.3-5.5-6.8l-0.1-0.1c-1.4-2.3-2.6-5.1-3.2-8V6.6
	C5.3,5.9,5.2,5.1,5.2,4.2c0-0.5,0-1,0.1-1.6v0.1c0.1-1,0.6-1.9,1.4-2.4l0,0c1.4-0.8,3.9,0,6.3,2.2c2,1.9,3.7,4.1,5.1,6.5l0.1,0.1
	c1.4,2.3,2.6,5,3.2,7.8v0.2c0.2,0.7,0.3,1.5,0.3,2.4c0,0.6,0,1.1-0.1,1.7v-0.1c-0.1,1-0.6,1.9-1.4,2.5l0,0C19.9,23.9,19.5,24,19,24
	L19,24L19,24L19,24z M9.7,14.2c1.5,2.6,3.2,4.8,5.3,6.7l0,0c2.2,1.9,3.9,2.3,4.6,1.8c0.8-0.4,1.3-2.3,0.8-5.2
	c-0.7-2.9-1.8-5.4-3.2-7.7l0.1,0.1c-1.4-2.5-3-4.6-4.9-6.4l0,0c-2.3-2.1-4.2-2.5-5-2.1C6.9,1.8,6.6,2.4,6.6,3l0,0
	C6.4,3.3,6.4,3.8,6.4,4.2c0,0.8,0.1,1.5,0.2,2.2V6.3c0.7,3,1.7,5.6,3.2,7.9H9.7L9.7,14.2z"/>
</svg>
